<svg xmlns="http://www.w3.org/2000/svg" height="511pt" version="1.1" viewBox="-51 0 511 511.99969" width="511pt">
<g id="surface1">
<path d="M 187.804688 247.460938 L 307.269531 247.460938 L 307.269531 196.261719 L 102.472656 196.261719 L 102.472656 247.460938 Z M 187.804688 247.460938 " style=" stroke:none;fill-rule:nonzero;fill:rgb(58.431373%,47.058824%,33.72549%);fill-opacity:1;" />
<path d="M 256.070312 59.730469 L 153.671875 59.730469 L 153.671875 196.261719 L 256.070312 196.261719 Z M 204.871094 153.597656 C 190.734375 153.597656 179.273438 142.136719 179.273438 127.996094 C 179.273438 113.859375 190.734375 102.398438 204.871094 102.398438 C 219.011719 102.398438 230.472656 113.859375 230.472656 127.996094 C 230.472656 142.136719 219.011719 153.597656 204.871094 153.597656 Z M 204.871094 153.597656 " style=" stroke:none;fill-rule:nonzero;fill:rgb(100%,83.137255%,13.333333%);fill-opacity:1;" />
<path d="M 179.273438 8.53125 L 230.472656 8.53125 L 230.472656 59.730469 L 179.273438 59.730469 Z M 179.273438 8.53125 " style=" stroke:none;fill-rule:nonzero;fill:rgb(58.431373%,47.058824%,33.72549%);fill-opacity:1;" />
<path d="M 230.472656 127.996094 C 230.472656 142.136719 219.007812 153.597656 204.871094 153.597656 C 190.734375 153.597656 179.273438 142.136719 179.273438 127.996094 C 179.273438 113.859375 190.734375 102.398438 204.871094 102.398438 C 219.007812 102.398438 230.472656 113.859375 230.472656 127.996094 Z M 230.472656 127.996094 " style=" stroke:none;fill-rule:nonzero;fill:rgb(37.254902%,30.196078%,21.568627%);fill-opacity:1;" />
<path d="M 187.804688 469.324219 L 204.871094 503.457031 L 221.9375 469.324219 L 221.9375 247.460938 L 187.804688 247.460938 Z M 187.804688 469.324219 " style=" stroke:none;fill-rule:nonzero;fill:rgb(67.45098%,67.058824%,69.411765%);fill-opacity:1;" />
<path d="M 368.878906 480.671875 L 400.707031 501.75 L 398.402344 463.605469 L 273.90625 247.460938 L 234.566406 247.460938 Z M 368.878906 480.671875 " style=" stroke:none;fill-rule:nonzero;fill:rgb(67.45098%,67.058824%,69.411765%);fill-opacity:1;" />
<path d="M 9.035156 501.75 L 40.863281 480.671875 L 175.175781 247.460938 L 135.839844 247.460938 L 11.339844 463.605469 Z M 9.035156 501.75 " style=" stroke:none;fill-rule:nonzero;fill:rgb(67.45098%,67.058824%,69.411765%);fill-opacity:1;" />
<path d="M 204.871094 93.863281 C 186.019531 93.863281 170.738281 109.144531 170.738281 127.996094 C 170.738281 146.847656 186.019531 162.128906 204.871094 162.128906 C 223.722656 162.128906 239.003906 146.847656 239.003906 127.996094 C 239.003906 109.144531 223.722656 93.863281 204.871094 93.863281 Z M 204.871094 145.0625 C 195.445312 145.0625 187.804688 137.421875 187.804688 127.996094 C 187.804688 118.570312 195.445312 110.929688 204.871094 110.929688 C 214.296875 110.929688 221.9375 118.570312 221.9375 127.996094 C 221.9375 137.421875 214.296875 145.0625 204.871094 145.0625 Z M 204.871094 145.0625 " style=" stroke:none;fill-rule:nonzero;fill:rgb(13.72549%,12.156863%,12.54902%);fill-opacity:1;" />
<path d="M 406.917969 463.09375 C 406.839844 461.777344 406.457031 460.492188 405.800781 459.347656 L 288.667969 255.996094 L 307.269531 255.996094 C 311.980469 255.996094 315.800781 252.175781 315.800781 247.460938 L 315.800781 196.261719 C 315.800781 191.550781 311.980469 187.730469 307.269531 187.730469 L 264.605469 187.730469 L 264.605469 59.730469 C 264.605469 55.019531 260.785156 51.199219 256.070312 51.199219 L 239.003906 51.199219 L 239.003906 8.53125 C 239.003906 3.820312 235.183594 0 230.472656 0 L 179.273438 0 C 174.558594 0 170.738281 3.820312 170.738281 8.53125 L 170.738281 51.199219 L 153.671875 51.199219 C 148.960938 51.199219 145.140625 55.019531 145.140625 59.730469 L 145.140625 187.726562 L 102.472656 187.726562 C 97.761719 187.726562 93.941406 191.550781 93.941406 196.261719 L 93.941406 247.460938 C 93.941406 252.171875 97.761719 255.992188 102.472656 255.992188 L 121.078125 255.992188 L 3.941406 459.347656 C 3.285156 460.492188 2.902344 461.777344 2.824219 463.09375 L 0.519531 501.230469 C 0.207031 505.933594 3.765625 509.996094 8.46875 510.308594 C 10.332031 510.433594 12.1875 509.941406 13.746094 508.910156 L 45.582031 487.832031 C 46.683594 487.097656 47.601562 486.121094 48.261719 484.972656 L 179.273438 257.453125 L 179.273438 469.324219 C 179.273438 470.648438 179.578125 471.953125 180.167969 473.136719 L 197.234375 507.269531 C 199.335938 511.488281 204.460938 513.203125 208.679688 511.101562 C 210.335938 510.273438 211.683594 508.929688 212.507812 507.269531 L 229.578125 473.136719 C 230.167969 471.953125 230.472656 470.648438 230.472656 469.324219 L 230.472656 257.453125 L 361.480469 484.929688 C 362.140625 486.078125 363.058594 487.054688 364.160156 487.789062 L 395.996094 508.867188 C 397.394531 509.792969 399.03125 510.285156 400.707031 510.285156 C 405.421875 510.292969 409.25 506.480469 409.257812 501.765625 C 409.257812 501.589844 409.25 501.410156 409.242188 501.230469 Z M 187.804688 17.066406 L 221.9375 17.066406 L 221.9375 51.199219 L 187.804688 51.199219 Z M 162.207031 68.265625 L 247.539062 68.265625 L 247.539062 187.730469 L 162.207031 187.730469 Z M 111.007812 204.796875 L 298.734375 204.796875 L 298.734375 238.929688 L 111.007812 238.929688 Z M 34.472656 474.675781 L 18.585938 485.1875 L 19.734375 466.125 L 140.769531 255.996094 L 160.398438 255.996094 Z M 213.40625 467.308594 L 204.871094 484.375 L 196.339844 467.308594 L 196.339844 255.996094 L 213.40625 255.996094 Z M 375.269531 474.675781 L 249.328125 255.996094 L 268.957031 255.996094 L 390.039062 466.125 L 391.191406 485.1875 Z M 375.269531 474.675781 " style=" stroke:none;fill-rule:nonzero;fill:rgb(13.72549%,12.156863%,12.54902%);fill-opacity:1;" />
</g>
</svg>