<svg id="Layer_1" enable-background="new 0 0 511 511" height="512" viewBox="0 0 511 511" width="512" xmlns="http://www.w3.org/2000/svg"><g><path d="m103.5 7.5h320v448h-320z" fill="#7bdaa9"/><path d="m55.5 407.5v-352h320v448h-224z" fill="#fff"/><path d="m351.5 55.5h24v448h-24z" fill="#e5ebf5"/><path d="m319.5 447.5h-48l-56 56h160z" fill="#dfa357"/><path d="m319.5 447.5h-32l56 56h32z" fill="#e07f66"/><path d="m55.5 407.5h96v96" fill="#e2fc85"/><g><path d="m243.326 199.556c24.771 24.771 26.751 60.675 5.828 81.598s-56.827 18.942-81.598-5.828c-32.056-32.057-32.056-107.826-32.056-107.826s75.769 0 107.826 32.056z" fill="#e2fc85"/><path d="m243.326 199.556c-32.057-32.056-107.826-32.056-107.826-32.056s.001 3.295.291 8.79c24.087 1.923 68.8 8.532 91.535 31.266 24.771 24.771 26.751 60.675 5.828 81.598-1.572 1.572-3.237 2.998-4.967 4.312 7.804-2.243 14.997-6.341 20.967-12.312 20.923-20.923 18.942-56.827-5.828-81.598z" fill="#7bdaa9"/><g><path d="m175.5 208h16v15h-16z" fill="#fff"/></g><path d="m347.674 279.556c-24.771 24.771-26.751 60.675-5.828 81.598s56.827 18.942 81.598-5.828c32.056-32.057 32.056-107.826 32.056-107.826s-75.769 0-107.826 32.056z" fill="#e2fc85"/><path d="m423.444 355.326c32.056-32.057 32.056-107.826 32.056-107.826s-3.295.001-8.79.291c-1.923 24.087-8.532 68.8-31.266 91.535-24.771 24.771-60.674 26.751-81.598 5.828-1.572-1.572-2.998-3.237-4.312-4.967 2.243 7.804 6.341 14.997 12.312 20.967 20.923 20.923 56.827 18.942 81.598-5.828z" fill="#7bdaa9"/><g><path d="m399.5 288h16v15h-16z" fill="#fff"/></g></g><g><path d="m418.141 350.022c-15.924 15.924-37.932 21.939-56.072 15.327l-5.138 14.093c6.539 2.384 13.426 3.539 20.399 3.539 18.19 0 36.937-7.872 51.417-22.352 33.864-33.863 34.253-109.908 34.253-113.129v-7.5h-7.5c-3.221 0-79.266.389-113.129 34.253-13.196 13.196-21.09 29.904-22.229 47.048-.979 14.735 3.072 28.489 11.466 39.486l-28.608 28.607v-133.894h-15v53.894l-28.607-28.607c8.394-10.997 12.445-24.75 11.466-39.486-1.139-17.144-9.034-33.852-22.229-47.048-33.864-33.864-109.909-34.253-113.13-34.253h-7.5v7.5c0 3.221.389 79.266 34.253 113.129 13.196 13.196 29.904 21.09 47.048 22.229 1.449.096 2.887.144 4.315.144 13.099 0 25.258-4.037 35.174-11.606l39.21 39.21v109.394h-19.606l-56 56h-53.394v-96h-96v-337h305v168.5h15v-183.5h-272v-33h305v208.5h15v-223.5h-335v48h-48v362.606l100.394 100.394h234.606v-48h48v-79.5h-15v64.5h-33v-48.5h-15v85.894l-45.394-45.394h-19.606v-29.394l93.803-93.803-10.606-10.606-43.851 43.851c-5.371-7.842-7.922-17.451-7.237-27.752.898-13.516 7.245-26.811 17.869-37.436 23.715-23.715 75.203-28.598 94.771-29.601-.378 7.485-1.323 19.631-3.685 33.079-4.984 28.379-13.949 49.709-25.923 61.684zm-207.846-62.13c-13.516-.898-26.811-7.245-37.436-17.869-23.715-23.715-28.598-75.203-29.601-94.771 7.484.378 19.631 1.323 33.079 3.685 28.38 4.984 49.71 13.948 61.686 25.923 10.625 10.625 16.971 23.92 17.869 37.436.684 10.302-1.866 19.911-7.237 27.752l-43.851-43.851-10.606 10.606 43.851 43.851c-7.843 5.371-17.452 7.92-27.754 7.238zm-66.295 197.502-70.394-70.394h70.394zm213.394 10.606h-123.788l41-41h41.787z"/><path d="m95.5 96h160v15h-160z"/><path d="m95.5 128h96v15h-96z"/></g></g></svg>