<svg id="Capa_1" enable-background="new 0 0 512 512" height="512" viewBox="0 0 512 512" width="512" xmlns="http://www.w3.org/2000/svg"><g><g><path d="m491.728 156c-38.947-91.693-129.826-156-235.728-156s-196.781 64.307-235.728 156l11.159 50-31.431 50c0 141.385 114.615 256 256 256s256-114.615 256-256l-31.431-50z" fill="#5d91c9"/></g><g><path d="m20.272 156c-13.049 30.722-20.272 64.517-20.272 100h512c0-35.483-7.223-69.278-20.272-100z" fill="#ccc"/></g><g><path d="m48.761 156c-14.888 30.792-22.761 64.789-22.761 100h460c0-35.211-7.873-69.208-22.761-100z" fill="#b3b3b3"/></g><g><circle cx="256" cy="256" fill="#e6e6e6" r="200"/></g><g><path d="m236 436c0-11.046 8.954-20 20-20v-320c-11.046 0-20-8.954-20-20s8.954-20 20-20c-110.457 0-200 89.543-200 200s89.543 200 200 200c-11.046 0-20-8.954-20-20z" fill="#ccc"/></g><g><circle cx="256" cy="256" fill="#564d47" r="160"/></g><g><path d="m161.846 256c0-76.941 54.594-141.365 127.077-156.587-10.629-2.232-21.64-3.413-32.923-3.413-88.224 0-160 71.776-160 160s71.776 160 160 160c11.283 0 22.294-1.181 32.923-3.413-72.483-15.222-127.077-79.646-127.077-156.587z" fill="#2b2b2b"/></g><g><path d="m409.5 301.162c1.51-5.123 2.77-10.351 3.765-15.671-44.611 7.272-82.555-4.171-119.929-20.455 40.624.727 81.651-3.069 121.759-26.05-.573-5.392-1.414-10.705-2.511-15.925-38.434 23.793-77.87 27.742-118.633 27 37.801-14.871 74.245-34.073 102.502-70.635-2.585-4.723-5.405-9.299-8.438-13.719-26.398 36.65-61.304 55.377-99.226 70.282 29.222-28.194 55.521-59.878 67.642-104.444-4.176-3.377-8.524-6.547-13.03-9.497-10.363 43.962-35.434 74.633-64.766 102.916 16.219-37.255 28.413-76.614 22.529-122.464-5.123-1.51-10.352-2.771-15.673-3.766 7.272 44.612-4.171 82.556-20.455 119.93.727-40.625-3.069-81.652-26.049-121.76-5.392.573-10.705 1.414-15.926 2.511 23.793 38.434 27.742 77.87 27 118.633-14.871-37.801-34.073-74.245-70.635-102.502-4.723 2.585-9.299 5.405-13.719 8.438 36.65 26.398 55.377 61.304 70.283 99.226-28.194-29.222-59.879-55.521-104.444-67.642-3.377 4.176-6.547 8.524-9.497 13.03 43.962 10.363 74.633 35.433 102.916 64.765-37.255-16.219-76.614-28.412-122.464-22.529-1.51 5.123-2.77 10.352-3.766 15.673 44.611-7.272 82.555 4.171 119.929 20.455-40.624-.727-81.652 3.069-121.759 26.05.573 5.392 1.414 10.705 2.511 15.926 38.434-23.793 77.87-27.742 118.633-27-37.802 14.871-74.245 34.073-102.502 70.635 2.585 4.723 5.405 9.299 8.438 13.719 26.398-36.65 61.304-55.377 99.226-70.282-29.222 28.194-55.521 59.878-67.642 104.444 4.176 3.377 8.524 6.547 13.03 9.497 10.363-43.962 35.434-74.633 64.766-102.916-16.219 37.255-28.413 76.614-22.529 122.464 5.123 1.51 10.352 2.771 15.673 3.766-7.272-44.612 4.171-82.556 20.455-119.93-.727 40.625 3.069 81.652 26.049 121.76 5.392-.573 10.705-1.414 15.926-2.511-23.793-38.434-27.742-77.87-27-118.633 14.871 37.801 34.073 74.245 70.635 102.502 4.723-2.585 9.299-5.405 13.719-8.438-36.65-26.398-55.377-61.304-70.283-99.226 28.194 29.222 59.879 55.521 104.444 67.642 3.377-4.176 6.547-8.524 9.497-13.03-43.964-10.364-74.635-35.435-102.918-64.768 30.753 13.389 62.934 24.041 99.025 24.04 7.63-.001 15.438-.484 23.442-1.511z" fill="#b3b3b3"/></g><g><circle cx="256" cy="256" fill="#e6e6e6" r="60"/></g><g><path d="m253.022 256c0-22.771 12.752-42.619 31.489-52.781-8.486-4.602-18.198-7.219-28.511-7.219-33.084 0-60 26.916-60 60s26.916 60 60 60c10.313 0 20.025-2.617 28.511-7.219-18.737-10.162-31.489-30.01-31.489-52.781z" fill="#ccc"/></g><g><g><path d="m164.22 228.498c.859-4.938 1.949-9.797 3.251-14.57-20.382-4.425-41.85-6.058-64.97-3.091-1.51 5.123-2.77 10.352-3.766 15.673 23.366-3.81 44.901-2.478 65.485 1.988z" fill="#564d47"/></g><g><path d="m182.231 177.93c-15.042-9.446-31.69-17.194-50.685-22.36-3.377 4.176-6.547 8.524-9.497 13.03 20.298 4.785 37.758 12.71 53.462 22.737 2.034-4.587 4.279-9.058 6.72-13.407z" fill="#564d47"/></g><g><path d="m198.188 154.582c3.196-3.89 6.573-7.625 10.115-11.196-8.269-9.906-17.768-19.252-28.878-27.838-4.723 2.585-9.299 5.405-13.719 8.438 12.822 9.234 23.444 19.514 32.482 30.596z" fill="#564d47"/></g><g><path d="m288.9 99.418c-1.133-.238-2.268-.47-3.41-.683.076.463.137.922.208 1.384 1.063-.247 2.132-.476 3.202-.701z" fill="#564d47"/></g><g><path d="m247.731 114.237c-2.552-5.793-5.445-11.572-8.744-17.332-5.392.573-10.705 1.414-15.926 2.511 4.605 7.439 8.459 14.916 11.688 22.433 4.195-2.733 8.527-5.274 12.982-7.612z" fill="#564d47"/></g><g><path d="m224.316 382.745c-5.01-3.865-9.785-8.019-14.301-12.438-1.069 12.571-.924 25.594.821 39.192 5.123 1.51 10.352 2.771 15.673 3.766-1.714-10.518-2.377-20.663-2.193-30.52z" fill="#564d47"/></g><g><path d="m268.581 406.873c1.394 2.745 2.865 5.486 4.432 8.222 5.386-.572 10.693-1.413 15.908-2.508-6.955-1.461-13.745-3.379-20.34-5.714z" fill="#564d47"/></g><g><path d="m179.016 328.053c-9.94 15.489-18.082 32.682-23.446 52.401 4.176 3.377 8.524 6.547 13.03 9.497 4.155-17.626 10.679-33.112 18.889-47.168-3.075-4.743-5.905-9.66-8.473-14.73z" fill="#564d47"/></g><g><path d="m165.055 287.958c-18.063 11.429-34.883 25.693-49.508 44.616 2.585 4.723 5.405 9.299 8.438 13.719 13.115-18.208 28.331-31.99 44.973-43.08-1.543-4.986-2.849-10.075-3.903-15.255z" fill="#564d47"/></g><g><path d="m161.846 256c0-1.893.045-3.776.111-5.653-21.812 3.553-43.564 10.355-65.052 22.667.573 5.392 1.414 10.705 2.511 15.926 20.601-12.753 41.49-19.801 62.716-23.485-.182-3.13-.286-6.28-.286-9.455z" fill="#564d47"/></g></g></g></svg>