<svg height="512" viewBox="0 0 512 512" width="512" xmlns="http://www.w3.org/2000/svg" xmlns:xlink="http://www.w3.org/1999/xlink"><linearGradient id="linear-gradient" gradientUnits="userSpaceOnUse" x1="157.11" x2="354.89" y1="383.699" y2="185.919"><stop offset="0" stop-color="#adcdf1"/><stop offset=".488" stop-color="#afcef1"/><stop offset=".677" stop-color="#b6d2f2"/><stop offset=".813" stop-color="#c2daf4"/><stop offset=".924" stop-color="#d3e4f7"/><stop offset="1" stop-color="#e4eefa"/></linearGradient><g id="_06-hydro_power" data-name="06-hydro power"><g id="gradient"><path d="m325.575 167.914a911.575 911.575 0 0 0 -60.894-72.2 12 12 0 0 0 -17.362 0 911.575 911.575 0 0 0 -60.894 72.2c-41.425 54.837-62.425 97.931-62.425 128.086 0 72.785 59.215 132 132 132s132-59.215 132-132c0-30.155-21-73.249-62.425-128.086z" fill="url(#linear-gradient)"/><path d="m309.526 277.663a6 6 0 0 0 -5.526-3.663h-30.292l19.659-39.317a6 6 0 0 0 -5.367-8.683h-48a6 6 0 0 0 -5.483 3.563l-32 72a6 6 0 0 0 5.483 8.437h31.247l-18.5 47.836a6 6 0 0 0 9.9 6.343l77.652-80a6 6 0 0 0 1.227-6.516z" fill="#e4eefa"/><path d="m503.2 206.4a12 12 0 0 0 -16.8 2.4l-5.809 7.745a228.07 228.07 0 0 0 -224.591-188.545c-109.694 0-203.941 78.137-224.1 185.792a12 12 0 1 0 23.59 4.416c18.034-96.308 102.361-166.208 200.51-166.208a203.164 203.164 0 0 1 201.18 169.885l-9.98-7.485a12 12 0 1 0 -14.4 19.2l30.762 23.072a11.961 11.961 0 0 0 7.446 3.287c.111.009.221.01.332.016.169.007.336.025.507.025h.09.054.077.223c.1 0 .191-.019.287-.025a11.955 11.955 0 0 0 9.022-4.775l24-32a12 12 0 0 0 -2.4-16.8z" fill="#fbe09d"/><path d="m470.512 284.205a12 12 0 0 0 -14 9.587c-18.036 96.308-102.363 166.208-200.512 166.208a203.164 203.164 0 0 1 -201.18-169.885l9.98 7.485a12 12 0 0 0 14.4-19.2l-30.8-23.1a11.953 11.953 0 0 0 -7.714-3.275c-.2-.012-.4-.008-.605-.009-.123 0-.244-.01-.368 0-.018 0-.035 0-.053 0a11.97 11.97 0 0 0 -9.26 4.784l-24 32a12 12 0 1 0 19.2 14.4l5.809-7.745a228.07 228.07 0 0 0 224.591 188.545c109.694 0 203.941-78.137 224.1-185.792a12 12 0 0 0 -9.588-14.003z" fill="#fef5de"/></g></g></svg>