<svg id="Layer_1" enable-background="new 0 0 512 512" height="512" viewBox="0 0 512 512" width="512" xmlns="http://www.w3.org/2000/svg"><path d="m7.5 417.545h497v86.718h-497z" fill="#d2f6ff"/><path d="m464.5 417.545h40v86.718h-40z" fill="#b8f0ff"/><path d="" style="fill:none;stroke:#000;stroke-width:15;stroke-linecap:round;stroke-linejoin:round;stroke-miterlimit:10"/><path d="m7.72 216.471h39.394v35.153h-39.394z" fill="#ab632e"/><path d="m7.72 181.318h25.454v35.153h-25.454z" fill="#de9252" transform="matrix(-1 0 0 -1 40.894 397.789)"/><path d="m7.72 66.101h13.624v115.217h-13.624z" fill="#ab632e" transform="matrix(-1 0 0 -1 29.064 247.419)"/><path d="m7.5 252h497v34h-497z" fill="#de9252"/><path d="m464.5 252h40v34h-40z" fill="#d18545"/><path d="m35.891 417.545c0-53.069 43.021-96.09 96.09-96.09s96.09 43.021 96.09 96.09h55.856c0-53.069 43.021-96.09 96.09-96.09s96.09 43.021 96.09 96.09h28.393v-131.545h-497v131.545z" fill="#ab632e"/><path d="m464.5 286v85.723c7.403 13.62 11.609 29.23 11.609 45.822h28.391v-131.545z" fill="#945628"/><path d="m209.425 216.847h93.787v35.153h-93.787z" fill="#ab632e"/><path d="m223.365 181.695h65.271v35.153h-65.271z" fill="#de9252"/><path d="m235.195 66.478h41.61v115.217h-41.61z" fill="#ab632e"/><path d="m465.106 216.847h39.394v35.153h-39.394z" fill="#ab632e"/><path d="m479.046 181.695h25.454v35.153h-25.454z" fill="#de9252"/><path d="m490.876 66.478h13.624v115.217h-13.624z" fill="#ab632e"/><circle cx="256" cy="26.362" fill="#ffe563" r="18.862"/><path d="m156.755 457.442h-47.367c-9.697 0-9.697 15 0 15h47.367c9.698 0 9.698-15 0-15z"/><path d="m302.767 496.763h-111.146c-9.697 0-9.697 15 0 15h111.146c9.697 0 9.697-15 0-15z"/><path d="m402.611 457.442h-175.933c-9.697 0-9.697 15 0 15h175.934c9.697 0 9.697-15-.001-15z"/><path d="m504.5 278.5h-419.5c-9.697 0-9.697 15 0 15h419.5c9.697 0 9.697-15 0-15z"/><path d="m7.5 293.5h39.833c9.697 0 9.697-15 0-15h-39.833c-9.697 0-9.697 15 0 15z"/><path d="m504.5 410.045h-21.165c-.917-12.963-4.212-25.451-9.849-37.214-4.191-8.746-17.718-2.263-13.527 6.482 4.66 9.724 7.454 20.032 8.341 30.732h-176.552c3.82-45.352 41.947-81.091 88.27-81.091 20.668 0 40.783 7.269 56.639 20.468 7.452 6.205 17.05-5.325 9.597-11.528-18.546-15.438-42.069-23.939-66.236-23.939-54.6 0-99.468 42.457-103.322 96.091h-41.393c-3.854-53.634-48.723-96.091-103.322-96.091-54.598 0-99.461 42.459-103.317 96.091h-21.164c-9.697 0-9.697 15 0 15h497c9.697-.001 9.697-15.001 0-15.001zm-372.519-81.09c46.323 0 84.45 35.739 88.27 81.091h-176.539c3.82-45.352 41.947-81.091 88.269-81.091z"/><path d="m504.5 188.441c9.697 0 9.697-15 0-15h-5.805v-100.216h5.805c9.697 0 9.697-15 0-15h-13.305c-4.142 0-7.5 3.358-7.5 7.5v16.575c-58.231 44.303-141.268 44.212-199.39-.156v-15.666c0-4.142-3.358-7.5-7.5-7.5h-13.305v-7.346c10.893-3.239 18.862-13.339 18.862-25.269 0-14.537-11.826-26.363-26.362-26.363s-26.362 11.826-26.362 26.362c0 11.931 7.969 22.03 18.862 25.269v7.346h-13.305c-4.142 0-7.5 3.358-7.5 7.5v15.913c-58.273 44.25-141.306 44.085-199.39-.34v-16.325c0-4.142-3.358-7.5-7.5-7.5h-13.305c-9.697 0-9.697 15 0 15h5.805v100.217h-5.805c-9.697 0-9.697 15 0 15h19.635v19.776h-19.635c-9.697 0-9.697 15 0 15h32.333v21.282h-32.333c-9.697 0-9.697 15 0 15h497c9.697 0 9.697-15 0-15h-32.333v-21.283h32.333c9.697 0 9.697-15 0-15h-19.635v-19.776zm-259.862-162.079c0-6.265 5.097-11.362 11.362-11.362s11.362 5.097 11.362 11.362-5.097 11.363-11.362 11.363-11.362-5.098-11.362-11.363zm131.966 218.138h-35.892v-118.972c11.722 2.931 23.751 4.697 35.892 5.211zm15-113.761c12.247-.519 24.381-2.31 36.2-5.287v119.048h-36.2zm-122.299-56.761v49.383c0 9.697 15 9.697 15 0v-22.791c12.882 8.608 26.824 15.489 41.407 20.511v123.419h-15v-27.276c0-4.142-3.358-7.5-7.5-7.5h-7.077v-28.029c0-4.142-3.358-7.5-7.5-7.5h-4.33v-15.333c0-9.697-15-9.697-15 0v15.333h-26.61v-100.217zm11.83 115.217v19.776h-50.271v-19.776zm-53.44-15h-4.33c-4.142 0-7.5 3.358-7.5 7.5v28.029h-6.439c-4.142 0-7.5 3.358-7.5 7.5v27.276h-15v-123.523c14.348-4.969 28.07-11.743 40.77-20.188v73.406zm-106.816 70.305h-36.046v-118.972c11.772 2.943 23.853 4.71 36.046 5.216zm15-113.768c12.195-.527 24.276-2.316 36.046-5.281v119.049h-36.046zm-88.546 77.485h-5.198v-27.276c0-4.142-3.358-7.5-7.5-7.5h-6.33v-72.954c12.916 8.646 26.899 15.556 41.528 20.594v123.419h-15v-28.783c0-4.142-3.357-7.5-7.5-7.5zm169.592 36.283v-19.776h78.787v19.776zm260.44-71.059c-4.142 0-7.5 3.358-7.5 7.5v27.276h-5.198c-4.142 0-7.5 3.358-7.5 7.5v28.783h-14.362v-123.523c14.393-4.985 28.157-11.784 40.89-20.267v72.731z"/></svg>