<svg id="Layer_3" enable-background="new 0 0 64 64" height="512" viewBox="0 0 64 64" width="512" xmlns="http://www.w3.org/2000/svg"><g><path d="m62 16h-1v-3c0-.552-.448-1-1-1h-6c-.552 0-1 .448-1 1v3h-9.18l-2.84-14.196c-.093-.468-.503-.804-.98-.804h-16c-.477 0-.887.336-.98.804l-2.84 14.196h-9.18v-3c0-.552-.448-1-1-1h-6c-.552 0-1 .448-1 1v3h-1c-.552 0-1 .448-1 1v14c0 .552.448 1 1 1h1v20c0 .553.448 1 1 1h6c.552 0 1-.447 1-1v-20h5.98l-5.96 29.804c-.059.294.017.599.207.83s.473.366.773.366h40c.3 0 .583-.135.773-.366s.266-.536.207-.83l-5.96-29.804h5.98v19c0 .553.448 1 1 1h6c.552 0 1-.447 1-1v-19h1c.552 0 1-.448 1-1v-14c0-.552-.448-1-1-1zm-57.586 14 12-12h5.172l-12 12zm20-12h8.172l-12 12h-8.172zm11 0h5.172l-12 12h-5.172zm8 0h8.172l-12 12h-8.172zm11 0h5.172l-12 12h-5.172zm.586-4h4v2h-4zm-30.18-11h6.18v4h2v-4h6.18l2.6 13h-19.56zm-19.82 11h4v2h-4zm8.586 4-10.586 10.586v-10.586zm-4.586 33h-4v-19h4zm41.78 10h-17.78v-4h-2v4h-17.78l5.8-29h25.96zm8.22-11h-4v-18h4zm-8.586-20 10.586-10.586v10.586z"/><path d="m31 49h2v4h-2z"/><path d="m31 41h2v4h-2z"/><path d="m31 33h2v4h-2z"/><path d="m31 11h2v4h-2z"/></g></svg>