<svg id="icons" enable-background="new 0 0 64 64" height="512" viewBox="0 0 64 64" width="512" xmlns="http://www.w3.org/2000/svg"><g><g><path d="m54 54.504h4v6h-4z" fill="#e6e9ed"/></g><g><path d="m58 54.504h5v6h-5z" fill="#ec87c0"/></g><g><path d="m10 57.504-2.99 3-6.01-3 6-3z" fill="#ffd2a6"/></g><g><path d="m54 60.504h-46.99l2.99-3-3-3h.01 16 19.99 11z" fill="#ffce54"/></g><g><path d="m16 40.494c1.66 0 3 5.35 3 7.01 0 1.65-1.34 3-3 3s-3-1.35-3-3c0-1.66 1.34-7.01 3-7.01z" fill="#a0d468"/></g><g><path d="m50 40.494c1.66 0 3 5.35 3 7.01 0 1.65-1.34 3-3 3-1.65 0-3-1.35-3-3 0-1.66 1.35-7.01 3-7.01z" fill="#a0d468"/></g><g><path d="m35.01 19.494h-4-5v-7.99h4 6 3.99v7.99z" fill="#ccd1d9"/></g><g><path d="m36.01 7.504v4h-6v-4h3z" fill="#aab2bd"/></g><g><path d="m43 54.504h-19.99v-.01-35h3 5 4 4.99 3v35z" fill="#e6e9ed"/></g></g><g><g><path d="m63 61.496h-55.994c-.155 0-.308-.036-.447-.105l-6.006-3c-.339-.169-.553-.516-.553-.895s.214-.726.553-.895l6.006-3c.14-.069.292-.105.447-.105h55.994c.553 0 1 .447 1 1v6c0 .553-.447 1-1 1zm-55.758-2h54.758v-4h-54.758l-4.004 2z"/></g><g><path d="m58 61.496c-.553 0-1-.447-1-1v-6c0-.553.447-1 1-1s1 .447 1 1v6c0 .553-.447 1-1 1z"/></g><g><path d="m54 61.496c-.553 0-1-.447-1-1v-6c0-.553.447-1 1-1s1 .447 1 1v6c0 .553-.447 1-1 1z"/></g><g><path d="m7.006 61.496c-.256 0-.512-.098-.707-.293-.391-.391-.391-1.023 0-1.414l2.997-2.996c.391-.391 1.023-.391 1.414 0s.391 1.023 0 1.414l-2.997 2.996c-.195.195-.451.293-.707.293z"/></g><g><path d="m10.003 58.5c-.256 0-.512-.098-.707-.293l-3.001-3.002c-.391-.391-.391-1.023 0-1.414s1.023-.391 1.414 0l3.001 3.002c.391.391.391 1.023 0 1.414-.195.195-.451.293-.707.293z"/></g><g><path d="m16 51.496c-2.206 0-4-1.794-4-4 0-1.141 1.152-8.004 4-8.004s4 6.863 4 8.004c0 2.206-1.794 4-4 4zm0-9.982c-.79.485-2 4.333-2 5.982 0 1.103.897 2 2 2s2-.897 2-2c0-1.649-1.21-5.497-2-5.982z"/></g><g><path d="m16 55.488c-.553 0-1-.447-1-1v-7.992c0-.553.447-1 1-1s1 .447 1 1v7.992c0 .553-.447 1-1 1z"/></g><g><path d="m50.003 51.496c-2.206 0-4-1.794-4-4 0-1.141 1.152-8.004 4-8.004s4 6.863 4 8.004c0 2.206-1.794 4-4 4zm0-9.982c-.79.485-2 4.333-2 5.982 0 1.103.897 2 2 2s2-.897 2-2c0-1.649-1.21-5.497-2-5.982z"/></g><g><path d="m50.003 55.488c-.553 0-1-.447-1-1v-7.992c0-.553.447-1 1-1s1 .447 1 1v7.992c0 .553-.447 1-1 1z"/></g><g><g><path d="m23.009 55.492c-.553 0-1-.447-1-1v-35c0-.553.447-1 1-1s1 .447 1 1v35c0 .553-.447 1-1 1z"/></g><g><path d="m43.005 55.492c-.553 0-1-.447-1-1v-35c0-.553.447-1 1-1s1 .447 1 1v35c0 .553-.447 1-1 1z"/></g><g><path d="m43.005 20.492h-19.996c-.553 0-1-.447-1-1s.447-1 1-1h19.996c.553 0 1 .447 1 1s-.447 1-1 1z"/></g><g><path d="m29.009 50.492c-.553 0-1-.447-1-1v-24.998c0-.553.447-1 1-1s1 .447 1 1v24.998c0 .553-.447 1-1 1z"/></g><g><path d="m33.007 46.492c-.553 0-1-.447-1-1v-20.998c0-.553.447-1 1-1s1 .447 1 1v20.998c0 .553-.447 1-1 1z"/></g><g><path d="m37.005 50.492c-.553 0-1-.447-1-1v-24.998c0-.553.447-1 1-1s1 .447 1 1v24.998c0 .553-.447 1-1 1z"/></g><g><path d="m31.008 20.492c-.553 0-1-.447-1-1v-2.988c0-.553.447-1 1-1s1 .447 1 1v2.988c0 .553-.447 1-1 1z"/></g><g><path d="m35.006 20.492c-.553 0-1-.447-1-1v-2.988c0-.553.447-1 1-1s1 .447 1 1v2.988c0 .553-.447 1-1 1z"/></g><g><path d="m26.009 20.492c-.553 0-1-.447-1-1v-7.988c0-.553.447-1 1-1s1 .447 1 1v7.988c0 .553-.447 1-1 1z"/></g><g><path d="m40.005 20.492c-.553 0-1-.447-1-1v-7.988c0-.553.447-1 1-1s1 .447 1 1v7.988c0 .553-.447 1-1 1z"/></g><g><path d="m40.005 12.504h-13.996c-.553 0-1-.447-1-1s.447-1 1-1h13.996c.553 0 1 .447 1 1s-.447 1-1 1z"/></g><g><path d="m30.007 12.504c-.553 0-1-.447-1-1v-4c0-.553.447-1 1-1s1 .447 1 1v4c0 .553-.447 1-1 1z"/></g><g><path d="m36.007 12.504c-.553 0-1-.447-1-1v-4c0-.553.447-1 1-1s1 .447 1 1v4c0 .553-.447 1-1 1z"/></g><g><path d="m36.007 8.504h-6c-.553 0-1-.447-1-1s.447-1 1-1h6c.553 0 1 .447 1 1s-.447 1-1 1z"/></g><g><path d="m33.007 8.504c-.553 0-1-.447-1-1v-4c0-.553.447-1 1-1s1 .447 1 1v4c0 .553-.447 1-1 1z"/></g><g><path d="m33.007 55.492c-.553 0-1-.447-1-1v-4c0-.553.447-1 1-1s1 .447 1 1v4c0 .553-.447 1-1 1z"/></g></g></g></svg>